<?xml version="1.0" encoding="UTF-8"?>
<svg version="1.1" xmlns="http://www.w3.org/2000/svg" width="250" height="250">
<path d="M0 0 C0.99 0.66 1.98 1.32 3 2 C3 2.99 3 3.98 3 5 C3.66 5 4.32 5 5 5 C6.1891713 8.71616032 6.34026535 12.12097502 6 16 C3.34215884 20.67780044 0.12068707 22.52454779 -5 24 C-10.50901596 23.24013573 -13.60429124 21.39444663 -17 17 C-17.8125 13.6875 -17.8125 13.6875 -18 11 C-19.37209664 10.86279034 -20.74835409 10.76700925 -22.125 10.6875 C-22.89070313 10.62949219 -23.65640625 10.57148437 -24.4453125 10.51171875 C-29.48218362 11.47442348 -32.66265195 15.34619103 -35.5546875 19.33203125 C-36.33712976 20.48613358 -37.11058594 21.64637855 -37.875 22.8125 C-38.2771875 23.40998047 -38.679375 24.00746094 -39.09375 24.62304688 C-40.07056653 26.07664291 -41.03646423 27.53756682 -42 29 C-37.25393542 29.68533613 -37.25393542 29.68533613 -32.5 30.3125 C-25.8652298 32.13706181 -21.94420245 35.59080807 -18 41 C-17.71125 41.721875 -17.4225 42.44375 -17.125 43.1875 C-15.25149551 46.2059239 -12.2635533 46.79127656 -9 48 C-9 48.66 -9 49.32 -9 50 C-7.515 50.495 -7.515 50.495 -6 51 C-3.9939116 54.695426 -3.3358346 57.84896623 -4 62 C-6.15412187 65.21796733 -8.50022746 68.25011373 -12 70 C-16.73177192 70.39431433 -19.09400722 70.45299639 -23.375 68.3125 C-26.24553506 65.7836953 -27.17758503 64.70086738 -28 61 C-28.14182499 57.99128421 -28.11800221 55.00905644 -28 52 C-31.64808693 50.84755424 -33.65105731 51.32408103 -37.17578125 52.890625 C-39.20682359 54.12577708 -40.42283938 55.5447827 -42 57.3125 C-44.71224998 59.83234781 -45.84183619 60.00101932 -49.63671875 59.9765625 C-54.83346855 59.38757227 -59.94505859 58.3319716 -65 57 C-65.70640625 56.82339844 -66.4128125 56.64679688 -67.140625 56.46484375 C-69.09375 55.9765625 -71.046875 55.48828125 -73 55 C-73 55.66 -73 56.32 -73 57 C-70.03 57.33 -67.06 57.66 -64 58 C-64 58.66 -64 59.32 -64 60 C-63.195625 59.79375 -62.39125 59.5875 -61.5625 59.375 C-57.1926788 58.91501882 -53.06040972 59.2052989 -49 61 C-47.734375 63.08203125 -47.734375 63.08203125 -47 65 C-47.66 65.66 -48.32 66.32 -49 67 C-49.01864184 70.74328225 -48.89611518 74.43755917 -48.65820312 78.171875 C-48.52213857 82.41429797 -48.61299051 85.10343474 -51.37890625 88.45703125 C-52.9403989 89.97198165 -54.51731091 91.47166583 -56.125 92.9375 C-59.18116883 96.29928571 -60.51118582 100.38315308 -61.8125 104.6875 C-63.5568354 108.08436367 -65.62036425 109.31018212 -69 111 C-71.97 110.505 -71.97 110.505 -75 110 C-79.95 110 -84.9 110 -90 110 C-90 99.44 -90 88.88 -90 78 C-89.01 77.505 -89.01 77.505 -88 77 C-89.485 76.01 -89.485 76.01 -91 75 C-91.33 75.33 -91.66 75.66 -92 76 C-94.6986905 76.07325436 -97.36502556 76.09222351 -100.0625 76.0625 C-102.681875 76.041875 -105.30125 76.02125 -108 76 C-108 66.1 -108 56.2 -108 46 C-106.515 45.505 -106.515 45.505 -105 45 C-105 34.44 -105 23.88 -105 13 C-100.05 13 -95.1 13 -90 13 C-90 23.56 -90 34.12 -90 45 C-90.99 45.495 -90.99 45.495 -92 46 C-90.68 46.66 -89.36 47.32 -88 48 C-88.24447876 46.98063354 -88.24447876 46.98063354 -88.49389648 45.94067383 C-89.07611199 42.55775738 -89.11226467 39.38219836 -89.09765625 35.94921875 C-89.0962413 35.29041214 -89.09482635 34.63160553 -89.09336853 33.95283508 C-89.087805 31.86434238 -89.07525947 29.77595989 -89.0625 27.6875 C-89.05748028 26.26497551 -89.0529182 24.84244934 -89.04882812 23.41992188 C-89.03784757 19.94657923 -89.02060835 16.47330039 -89 13 C-83.66666667 13 -78.33333333 13 -73 13 C-71.60848102 12.45724986 -70.23555278 11.86627826 -68.875 11.25 C-68.07191406 10.88777344 -67.26882812 10.52554688 -66.44140625 10.15234375 C-64.19808557 9.09349639 -62.007537 7.96711484 -59.8125 6.8125 C-56.55793468 5.16576775 -53.6808826 4.25680576 -50 4 C-49.01 4.33 -48.02 4.66 -47 5 C-47 4.34 -47 3.68 -47 3 C-45.1746875 2.7834375 -45.1746875 2.7834375 -43.3125 2.5625 C-41.01246397 2.28102706 -38.82248183 1.95903427 -36.5625 1.4375 C-30.95853832 0.48072606 -25.53331771 0.80360698 -20 2 C-15.56405982 2.37471649 -15.56405982 2.37471649 -11.6875 0.4375 C-7.77082049 -1.65746811 -4.23717805 -1.05532712 0 0 Z M-80 21 C-80 22.32 -80 23.64 -80 25 C-78.35 25 -76.7 25 -75 25 C-75 23.68 -75 22.36 -75 21 C-76.65 21 -78.3 21 -80 21 Z M-80 31 C-79.67 32.65 -79.34 34.3 -79 36 C-77.68 36 -76.36 36 -75 36 C-75 34.35 -75 32.7 -75 31 C-76.65 31 -78.3 31 -80 31 Z M-98 43 C-98.99 43.99 -99.98 44.98 -101 46 C-100.34 46.66 -99.68 47.32 -99 48 C-98.01 46.68 -97.02 45.36 -96 44 C-96.66 43.67 -97.32 43.34 -98 43 Z M-78 46 C-76.68 46.99 -75.36 47.98 -74 49 C-74 47.35 -74 45.7 -74 44 C-75.46225016 43.90754997 -75.46225016 43.90754997 -78 46 Z M-91 51 C-90 53 -90 53 -90 53 Z M-66 71 C-66 71.33 -66 71.66 -66 72 C-63.36 72 -60.72 72 -58 72 C-57.67 70.68 -57.34 69.36 -57 68 C-61.26987623 68 -62.59725801 68.63698473 -66 71 Z M-80 76 C-80.33 76.66 -80.66 77.32 -81 78 C-79.02 77.67 -77.04 77.34 -75 77 C-75 76.67 -75 76.34 -75 76 C-76.65 76 -78.3 76 -80 76 Z M-77 78 C-77 78.66 -77 79.32 -77 80 C-76.34 80 -75.68 80 -75 80 C-75 79.34 -75 78.68 -75 78 C-75.66 78 -76.32 78 -77 78 Z M-74 89 C-75.01687046 93.77762638 -75.01687046 93.77762638 -74.0625 98.4375 C-73.5365625 99.2109375 -73.5365625 99.2109375 -73 100 C-69.27549784 97.89484661 -67.3204079 96.75732776 -65.625 92.75 C-65.41875 91.8425 -65.2125 90.935 -65 90 C-65.928125 90.020625 -66.85625 90.04125 -67.8125 90.0625 C-71 90 -71 90 -74 89 Z " fill="#FEFEFE" transform="translate(222,67)"/>
<path d="M0 0 C5 0 5 0 8 2 C8 1.34 8 0.68 8 0 C12.62 0 17.24 0 22 0 C22 0.66 22 1.32 22 2 C22.66 2 23.32 2 24 2 C24.33 1.34 24.66 0.68 25 0 C28.3 0 31.6 0 35 0 C35.495 1.485 35.495 1.485 36 3 C36.66 2.34 37.32 1.68 38 1 C43.95432285 -0.04461804 49.90602883 -0.12546997 55.9375 -0.1875 C56.69554932 -0.20055176 57.45359863 -0.21360352 58.23461914 -0.22705078 C60.15790007 -0.23008332 62.08065095 -0.12295504 64 0 C66 2 66 2 66.1875 5 C66 8 66 8 65 10 C63.68 10 62.36 10 61 10 C61 10.66 61 11.32 61 12 C62.65 12.33 64.3 12.66 66 13 C66 15.31 66 17.62 66 20 C64.35 20.33 62.7 20.66 61 21 C61 21.99 61 22.98 61 24 C62.65 24.33 64.3 24.66 66 25 C66 27.64 66 30.28 66 33 C63.91695462 33.05418326 61.83350232 33.09287551 59.75 33.125 C58.58984375 33.14820313 57.4296875 33.17140625 56.234375 33.1953125 C53.17213954 33.0103949 51.55797249 32.60823023 49 31 C48.67 31.66 48.34 32.32 48 33 C45.66705225 33.04241723 43.33297433 33.04092937 41 33 C40 32 40 32 39.88647461 29.86694336 C39.89171143 28.95050049 39.89694824 28.03405762 39.90234375 27.08984375 C39.90556641 26.10048828 39.90878906 25.11113281 39.91210938 24.09179688 C39.92467773 22.53041992 39.92467773 22.53041992 39.9375 20.9375 C39.94201172 19.89271484 39.94652344 18.84792969 39.95117188 17.77148438 C39.96300087 15.1809334 39.97948311 12.59049441 40 10 C38.02 10.99 36.04 11.98 34 13 C34.66 13.598125 35.32 14.19625 36 14.8125 C38.90734714 19.4460845 38.79757484 23.66364876 38 29 C35.89791388 32.53150468 34.53303416 32.86431858 30.5625 33.875 C27.01967368 33.9993097 25.11298076 33.60365676 22 32 C21.67 32.33 21.34 32.66 21 33 C18.85692104 33.12537741 16.70921114 33.17574364 14.5625 33.1875 C12.80099609 33.20876953 12.80099609 33.20876953 11.00390625 33.23046875 C8 33 8 33 6 31 C5.29875 31.515625 4.5975 32.03125 3.875 32.5625 C1 34 1 34 -2 34 C-5.98930657 32.67023114 -7.58880495 31.47495757 -10 28 C-10.51706995 24.6097269 -10.56923549 21.38545318 -10 18 C-8 16 -8 16 -5.4375 15.8125 C-3 16 -3 16 -2 17 C-1.67 19.64 -1.34 22.28 -1 25 C-0.67 16.75 -0.34 8.5 0 0 Z M21 8 C21 8.66 21 9.32 21 10 C19.35 10 17.7 10 16 10 C16 10.66 16 11.32 16 12 C18.475 12.495 18.475 12.495 21 13 C21.33 11.35 21.66 9.7 22 8 C21.67 8 21.34 8 21 8 Z M22 14 C22 15.65 22 17.3 22 19 C22.99 19 23.98 19 25 19 C24.34 17.35 23.68 15.7 23 14 C22.67 14 22.34 14 22 14 Z M21 19 C19.66667905 21.6666419 20.32897967 23.16680303 21 26 C21.33 26 21.66 26 22 26 C22 23.69 22 21.38 22 19 C21.67 19 21.34 19 21 19 Z M16 21 C16 21.99 16 22.98 16 24 C17.32 24 18.64 24 20 24 C20 23.01 20 22.02 20 21 C18.68 21 17.36 21 16 21 Z " fill="#FEFEFE" transform="translate(65,144)"/>
<path d="M0 0 C4.62 0 9.24 0 14 0 C14 9.9 14 19.8 14 30 C13.01 30.33 12.02 30.66 11 31 C11 41.56 11 52.12 11 63 C7.66666667 63 4.33333333 63 1 63 C-0.485 63.495 -0.485 63.495 -2 64 C-4.13964407 64.01597151 -6.28003715 63.96597134 -8.41796875 63.87890625 C-9.5474292 63.83580322 -10.67688965 63.7927002 -11.84057617 63.74829102 C-13.27506104 63.68697998 -14.7095459 63.62566895 -16.1875 63.5625 C-20.745625 63.376875 -25.30375 63.19125 -30 63 C-30 52.77 -30 42.54 -30 32 C-22.636875 31.938125 -22.636875 31.938125 -15.125 31.875 C-13.57699707 31.85679199 -12.02899414 31.83858398 -10.43408203 31.81982422 C-9.22091309 31.8148291 -8.00774414 31.80983398 -6.7578125 31.8046875 C-4.88826904 31.78897705 -4.88826904 31.78897705 -2.98095703 31.77294922 C0 32 0 32 2 34 C2.66 33.34 3.32 32.68 4 32 C3.34 31.34 2.68 30.68 2 30 C1.69702148 27.76928711 1.69702148 27.76928711 1.62109375 25.02734375 C1.56985352 23.55491211 1.56985352 23.55491211 1.51757812 22.05273438 C1.49115234 21.02470703 1.46472656 19.99667969 1.4375 18.9375 C1.37782739 16.90482249 1.31424165 14.87225477 1.24609375 12.83984375 C1.22216553 11.93613037 1.1982373 11.03241699 1.17358398 10.10131836 C1.22908165 8.01358411 1.22908165 8.01358411 0 7 C0 4.69 0 2.38 0 0 Z M-23 58 C-22 61 -22 61 -22 61 Z " fill="#FDFEFD" transform="translate(102,80)"/>
<path d="M0 0 C3.96 0 7.92 0 12 0 C12.99 0.99 13.98 1.98 15 3 C15.66 2.01 16.32 1.02 17 0 C19.71484375 -0.43359375 19.71484375 -0.43359375 22.9375 -0.4375 C24.52884766 -0.46650391 24.52884766 -0.46650391 26.15234375 -0.49609375 C29 0 29 0 30.81640625 1.83984375 C32 4 32 4 33 7 C33.66 4.69 34.32 2.38 35 0 C38.63 0 42.26 0 46 0 C46.495 3.465 46.495 3.465 47 7 C47.33 5.35 47.66 3.7 48 2 C48.33 2 48.66 2 49 2 C49 11.57 49 21.14 49 31 C38.11 31 27.22 31 16 31 C15.67 30.34 15.34 29.68 15 29 C13.68 29.99 12.36 30.98 11 32 C7.37 31.67 3.74 31.34 0 31 C0 20.77 0 10.54 0 0 Z M15 7 C16 11 16 11 16 11 Z M32 10 C32 13 32 13 32 13 Z M15 13 C15 16 15 16 15 16 Z M40 15 C40 16.98 40 18.96 40 21 C40.33 21 40.66 21 41 21 C41 19.02 41 17.04 41 15 C40.67 15 40.34 15 40 15 Z M15 18 C15 20.64 15 23.28 15 26 C15.33 26 15.66 26 16 26 C16 23.36 16 20.72 16 18 C15.67 18 15.34 18 15 18 Z M31 18 C32 21 32 21 32 21 Z M6 19 C6 20.65 6 22.3 6 24 C6.33 24 6.66 24 7 24 C7 22.35 7 20.7 7 19 C6.67 19 6.34 19 6 19 Z " fill="#FEFEFE" transform="translate(22,112)"/>
<path d="M0 0 C0.33 0 0.66 0 1 0 C1 9.24 1 18.48 1 28 C0.67 28 0.34 28 0 28 C0 18.76 0 9.52 0 0 Z " fill="#FFFFFF" transform="translate(20,114)"/>
<path d="M0 0 C3.3 0 6.6 0 10 0 C10 0.33 10 0.66 10 1 C6.7 1 3.4 1 0 1 C0 0.67 0 0.34 0 0 Z " fill="#FFFFFF" transform="translate(22,144)"/>
<path d="M0 0 C1.98 0 3.96 0 6 0 C6 0.33 6 0.66 6 1 C4.02 1 2.04 1 0 1 C0 0.67 0 0.34 0 0 Z " fill="#FFFFFF" transform="translate(47,144)"/>
<path d="M0 0 C0.33 1.32 0.66 2.64 1 4 C0.01 4.495 0.01 4.495 -1 5 C-0.67 3.35 -0.34 1.7 0 0 Z " fill="#FFFFFF" transform="translate(55,114)"/>
<path d="M0 0 C1.65 0 3.3 0 5 0 C5 0.33 5 0.66 5 1 C3.35 1 1.7 1 0 1 C0 0.67 0 0.34 0 0 Z " fill="#FFFFFF" transform="translate(55,144)"/>
<path d="M0 0 C1.65 0 3.3 0 5 0 C5 0.33 5 0.66 5 1 C3.35 1 1.7 1 0 1 C0 0.67 0 0.34 0 0 Z " fill="#FFFFFF" transform="translate(39,144)"/>
<path d="M0 0 C2 1 2 1 2 1 Z " fill="#FFFFFF" transform="translate(159,125)"/>
<path d="" fill="#FFFFFF" transform="translate(0,0)"/>
<path d="" fill="#FFFFFF" transform="translate(0,0)"/>
</svg>
